<?xml version="1.0" encoding="UTF-8" standalone="no"?>
<!DOCTYPE svg PUBLIC "-//W3C//DTD SVG 20010904//EN"
              "http://www.w3.org/TR/2001/REC-SVG-20010904/DTD/svg10.dtd">

<svg xmlns="http://www.w3.org/2000/svg"
     width="0.755in" height="0.785in"
     viewBox="0 0 453 471">
  <path id="Left"
        fill="none" stroke="black" stroke-width="1"
        d="M 0.00,320.00
           C 11.98,312.50 13.76,309.83 28.00,303.31
             48.46,293.94 66.84,292.07 89.00,293.04
             99.09,293.48 113.58,297.47 123.00,301.20
             126.52,302.60 133.52,306.94 136.91,305.19
             139.36,303.93 150.31,290.12 153.00,287.00
             153.00,287.00 191.59,241.00 191.59,241.00
             191.59,241.00 300.92,111.00 300.92,111.00
             300.92,111.00 332.08,74.00 332.08,74.00
             336.54,68.66 344.88,60.21 347.00,54.00
             347.00,54.00 332.00,43.69 332.00,43.69
             317.67,34.36 300.90,25.50 285.00,19.20
             217.71,-7.45 141.59,-7.01 75.00,21.72
             54.12,30.73 35.08,42.10 17.00,55.88
             13.18,58.80 2.15,67.00 0.60,71.04
             -0.12,72.89 0.00,75.98 0.00,78.00
             0.00,78.00 0.00,320.00 0.00,320.00 Z" />
</svg>
