<?xml version="1.0" encoding="UTF-8" standalone="no"?>
<!DOCTYPE svg PUBLIC "-//W3C//DTD SVG 20010904//EN"
              "http://www.w3.org/TR/2001/REC-SVG-20010904/DTD/svg10.dtd">

<svg xmlns="http://www.w3.org/2000/svg"
     width="0.755in" height="0.785in"
     viewBox="0 0 453 471">
  <path id="Right"
        fill="none" stroke="black" stroke-width="1"
        d="M 378.00,83.00
           C 378.00,83.00 324.15,145.00 324.15,145.00
             324.15,145.00 223.72,260.00 223.72,260.00
             223.72,260.00 181.72,308.00 181.72,308.00
             178.98,311.15 166.91,324.05 166.30,327.00
             165.55,330.61 172.80,337.01 175.19,340.00
             182.95,349.68 189.23,360.47 193.80,372.00
             207.35,406.22 204.09,437.77 190.00,471.00
             190.00,471.00 357.00,471.00 357.00,471.00
             359.09,471.00 362.06,471.12 364.00,470.40
             367.88,468.97 378.57,457.54 381.96,454.00
             400.36,434.77 415.53,410.82 427.24,387.00
             463.88,312.50 461.19,220.71 424.25,147.00
             416.45,131.45 406.96,116.77 396.35,103.00
             391.45,96.65 384.38,87.58 378.00,83.00 Z" />
</svg>
